<svg width="24" height="24" viewBox="0 0 24 24" fill="none" xmlns="http://www.w3.org/2000/svg">
<path d="M21.0401 13.2799L20.1201 12.3799L12.3701 20.1199L13.3001 21.0499C14.0801 21.8299 14.8901 22.2199 15.6901 22.2199C16.4901 22.2199 17.3001 21.8299 18.0801 21.0499L21.0401 18.0899C22.6301 16.4899 22.6301 14.8799 21.0401 13.2799Z" fill="#41FFB4"/>
<path d="M10.6898 2.93043C9.11976 1.36043 7.46977 1.36043 5.89977 2.93043L2.92977 5.89043C1.36977 7.46043 1.36977 9.11043 2.92977 10.6804L3.84977 11.6004L11.5998 3.85043L10.6898 2.93043Z" fill="#41FFB4"/>
<path d="M21.8098 3.94009C20.4998 7.21009 17.5098 11.4801 14.6598 14.2701C14.2498 11.6901 12.1898 9.67009 9.58984 9.31009C12.3898 6.45009 16.6898 3.42009 19.9698 2.10009C20.5498 1.88009 21.1298 2.05009 21.4898 2.41009C21.8698 2.79009 22.0498 3.36009 21.8098 3.94009Z" fill="#41FFB4"/>
<path d="M13.7801 15.09C13.5801 15.26 13.3801 15.43 13.1801 15.59L11.3901 17.02C11.3901 16.99 11.3801 16.95 11.3801 16.91C11.2401 15.84 10.7401 14.85 9.93012 14.04C9.11012 13.22 8.09012 12.72 6.97012 12.58C6.94012 12.58 6.90012 12.57 6.87012 12.57L8.32012 10.74C8.46012 10.56 8.61012 10.39 8.77012 10.21L9.45012 10.3C11.6001 10.6 13.3301 12.29 13.6701 14.43L13.7801 15.09Z" fill="#41FFB4"/>
<path d="M10.4298 17.6198C10.4298 18.7198 10.0098 19.7698 9.20976 20.5598C8.59976 21.1798 7.77977 21.5998 6.77977 21.7198L4.32976 21.9898C2.98976 22.1398 1.83976 20.9898 1.98976 19.6398L2.25976 17.1798C2.49976 14.9898 4.32976 13.5898 6.26976 13.5498C6.45976 13.5398 6.66976 13.5498 6.86976 13.5698C7.71976 13.6798 8.53976 14.0698 9.22976 14.7498C9.89976 15.4198 10.2798 16.2098 10.3898 17.0398C10.4098 17.2398 10.4298 17.4298 10.4298 17.6198Z" fill="#41FFB4"/>
</svg>
