<svg width="24" height="24" fill="none" xmlns="http://www.w3.org/2000/svg"><g clip-path="url(#a)" fill="#41FFB4"><path d="M12 4.79c.64 0 1.15.52 1.15 1.15 0 .63-.52 1.15-1.15 1.15-.63 0-1.15-.52-1.15-1.15 0-.63.52-1.15 1.15-1.15zm0-1.31c-1.36 0-2.46 1.11-2.46 2.46 0 1.35 1.11 2.46 2.46 2.46 1.35 0 2.46-1.11 2.46-2.46 0-1.35-1.11-2.46-2.46-2.46z"/><path d="M8.1 9.39c.06 0 .12 0 .18.02l2.36.63a5.238 5.238 0 0 0 2.73 0l2.35-.63c.06-.01.12-.02.17-.02.3 0 .56.19.64.49.09.35-.11.71-.47.81l-2.24.6c-.17.05-.28.22-.24.39l.19.82.04.15 1.49 5.58c.02.06.03.12.03.18 0 .29-.2.55-.49.63-.06.01-.12.02-.17.02a.66.66 0 0 1-.64-.49l-1.25-4.64a.813.813 0 0 0-.78-.6c-.36 0-.69.25-.78.6l-1.25 4.64c-.08.3-.34.49-.64.49-.06 0-.11 0-.17-.02a.66.66 0 0 1-.49-.64c0-.06 0-.11.02-.17L10 13.34v-.06l.39-1.61a.321.321 0 0 0-.24-.39l-2.24-.6a.66.66 0 0 1-.49-.64c0-.06 0-.11.02-.17a.66.66 0 0 1 .63-.49m0-1.31c-.89 0-1.68.6-1.9 1.46v.02l-.01.03c-.03.15-.05.3-.05.46 0 .89.6 1.68 1.46 1.91l1.32.35-.16.68v.04l-1.32 4.86v.03l-.01.03c-.03.15-.05.3-.05.46a1.98 1.98 0 0 0 1.97 1.98c.9 0 1.68-.61 1.91-1.47l.76-2.81.76 2.82c.24.87 1.02 1.46 1.91 1.46.17 0 .34-.02.5-.06.87-.24 1.47-1.02 1.47-1.9 0-.19-.03-.37-.08-.54l-1.48-5.56 1.32-.36c.5-.13.93-.45 1.2-.91.27-.46.34-.99.2-1.5a1.99 1.99 0 0 0-2.37-1.42h-.03l-.03.01-2.35.63c-.34.09-.69.14-1.03.14-.34 0-.69-.04-1.02-.13l-2.35-.63c-.16-.05-.34-.07-.52-.07l-.02-.01z"/><path d="M20 1.5A2.5 2.5 0 0 1 22.5 4v16a2.5 2.5 0 0 1-2.5 2.5H4A2.5 2.5 0 0 1 1.5 20V4A2.5 2.5 0 0 1 4 1.5h16zM20 0H4C1.79 0 0 1.79 0 4v16c0 2.21 1.79 4 4 4h16c2.21 0 4-1.79 4-4V4c0-2.21-1.79-4-4-4z"/></g><defs><clipPath id="a"><path fill="#fff" d="M0 0h24v24H0z"/></clipPath></defs></svg>