<svg width="24" height="24" fill="none" xmlns="http://www.w3.org/2000/svg"><path d="M12 21.65c-.31 0-.61-.04-.86-.13-3.82-1.31-9.89-5.96-9.89-12.83 0-3.5 2.83-6.34 6.31-6.34 1.69 0 3.27.66 4.44 1.84a6.214 6.214 0 0 1 4.44-1.84c3.48 0 6.31 2.85 6.31 6.34 0 6.88-6.07 11.52-9.89 12.83-.25.09-.55.13-.86.13zM7.56 3.85c-2.65 0-4.81 2.17-4.81 4.84 0 6.83 6.57 10.63 8.88 11.42.18.06.57.06.75 0 2.3-.79 8.88-4.58 8.88-11.42 0-2.67-2.16-4.84-4.81-4.84-1.52 0-2.93.71-3.84 1.94-.28.38-.92.38-1.2 0a4.77 4.77 0 0 0-3.85-1.94z" fill="#52525A"/><path fill-rule="evenodd" clip-rule="evenodd" d="m15.98 9.563.786 1.49c.234.445.623.804 1.03 1.05.408.245.905.421 1.404.421h2.03a.75.75 0 0 0 0-1.5H19.2c-.161 0-.394-.064-.629-.206s-.4-.317-.477-.463l-1.04-1.971c-.184-.347-.567-.815-1.181-.783-.616.033-.947.541-1.091.909l-2.057 5.22-.908-2.292v-.002c-.207-.517-.6-.944-1.034-1.24-.436-.295-.977-.502-1.533-.502l-3.003.01a.75.75 0 0 0 .006 1.5l2.998-.01c.194 0 .447.079.689.243.242.164.41.371.483.555l1.14 2.878v.003c.088.217.208.435.378.61.174.178.44.349.784.349.345 0 .61-.17.784-.35.17-.174.29-.392.377-.61l2.093-5.31z" fill="#52525A"/></svg>