<svg width="24" height="24" viewBox="0 0 24 24" fill="none" xmlns="http://www.w3.org/2000/svg">
<path d="M12 21.6501C11.69 21.6501 11.39 21.6101 11.14 21.5201C7.32 20.2101 1.25 15.5601 1.25 8.6901C1.25 5.1901 4.08 2.3501 7.56 2.3501C9.25 2.3501 10.83 3.0101 12 4.1901C13.17 3.0101 14.75 2.3501 16.44 2.3501C19.92 2.3501 22.75 5.2001 22.75 8.6901C22.75 15.5701 16.68 20.2101 12.86 21.5201C12.61 21.6101 12.31 21.6501 12 21.6501ZM7.56 3.8501C4.91 3.8501 2.75 6.0201 2.75 8.6901C2.75 15.5201 9.32 19.3201 11.63 20.1101C11.81 20.1701 12.2 20.1701 12.38 20.1101C14.68 19.3201 21.26 15.5301 21.26 8.6901C21.26 6.0201 19.1 3.8501 16.45 3.8501C14.93 3.8501 13.52 4.5601 12.61 5.7901C12.33 6.1701 11.69 6.1701 11.41 5.7901C10.48 4.5501 9.08 3.8501 7.56 3.8501Z" fill="#41FFB4"/>
<path fill-rule="evenodd" clip-rule="evenodd" d="M15.9793 9.56269L16.7661 11.053C16.766 11.0528 16.7662 11.0532 16.7661 11.053C16.9998 11.4976 17.3893 11.8571 17.7964 12.1026C18.2036 12.3482 18.7013 12.5242 19.2 12.5242H21.23C21.6442 12.5242 21.98 12.1884 21.98 11.7742C21.98 11.3599 21.6442 11.0242 21.23 11.0242H19.2C19.0387 11.0242 18.8064 10.9601 18.5711 10.8182C18.3359 10.6763 18.1702 10.5005 18.0939 10.3553L17.0532 8.38402C16.8697 8.03653 16.4866 7.56891 15.8728 7.60146C15.2567 7.63413 14.9264 8.14227 14.782 8.50968C14.7821 8.50961 14.782 8.50976 14.782 8.50968L12.7245 13.7299L11.8174 11.4381L11.8164 11.4356C11.6098 10.9191 11.2179 10.4917 10.7825 10.1962C10.3474 9.90072 9.80575 9.69416 9.25 9.69416L6.2475 9.70417C5.83329 9.70555 5.49862 10.0425 5.5 10.4567C5.50138 10.8709 5.83829 11.2055 6.2525 11.2042L9.25105 11.1942C9.44517 11.1944 9.69804 11.2729 9.93996 11.4372C10.1817 11.6013 10.3496 11.8084 10.4232 11.9917C10.4234 11.992 10.4235 11.9924 10.4236 11.9927L11.5626 14.8702L11.5636 14.8727C11.6506 15.09 11.7706 15.3078 11.9409 15.4828C12.1146 15.6613 12.3805 15.8317 12.725 15.8317C13.0695 15.8317 13.3354 15.6613 13.5091 15.4828C13.6794 15.3078 13.7994 15.09 13.8864 14.8727L15.9793 9.56269Z" fill="#41FFB4"/>
</svg>
