<svg width="24" height="20" fill="none" xmlns="http://www.w3.org/2000/svg"><path stroke="#52525A" stroke-width="1.5" stroke-linejoin="round" d="M.75.75h22.5v18.5H.75z"/><path d="M9.67 12v-1.008H7.54v-.588l2.1-2.874h.702v2.874h.618v.588h-.618V12h-.671zm-1.607-1.338-.114-.258H9.67v-2.31l.192.06-1.8 2.508zM11.76 12v-.78h.69V12h-.69zm0-2.466v-.78h.69v.78h-.69zm3.023 2.538a1.75 1.75 0 0 1-.679-.132 1.591 1.591 0 0 1-.54-.372 1.407 1.407 0 0 1-.317-.564l.6-.228c.08.212.201.376.365.492a.962.962 0 0 0 .57.174.96.96 0 0 0 .457-.102.734.734 0 0 0 .306-.288.845.845 0 0 0 .114-.45.833.833 0 0 0-.114-.444.697.697 0 0 0-.306-.282 1.009 1.009 0 0 0-.457-.096c-.072 0-.146.006-.221.018a1.12 1.12 0 0 0-.192.048l-.156-.33 1.175-1.386h-1.901v-.6h2.694v.57L15.03 9.48l-.018-.228c.268.004.503.064.707.18.205.112.362.268.475.468.116.196.174.424.174.684 0 .28-.069.534-.204.762a1.48 1.48 0 0 1-.565.534 1.685 1.685 0 0 1-.816.192zM20.25 8.5c-.41 0-.75-.34-.75-.75V4.5h-3.25c-.41 0-.75-.34-.75-.75s.34-.75.75-.75h4c.41 0 .75.34.75.75v4c0 .41-.34.75-.75.75zM7.75 17h-4c-.41 0-.75-.34-.75-.75v-4c0-.41.34-.75.75-.75s.75.34.75.75v3.25h3.25c.41 0 .75.34.75.75s-.34.75-.75.75zM3.75 8.5c-.41 0-.75-.34-.75-.75v-4c0-.41.34-.75.75-.75h4c.41 0 .75.34.75.75s-.34.75-.75.75H4.5v3.25c0 .41-.34.75-.75.75zM20.25 17h-4c-.41 0-.75-.34-.75-.75s.34-.75.75-.75h3.25v-3.25c0-.41.34-.75.75-.75s.75.34.75.75v4c0 .41-.34.75-.75.75z" fill="#52525A"/></svg>