<svg width="22" height="18" fill="none" xmlns="http://www.w3.org/2000/svg"><path fill="#41FFB4" d="M0 0h22v18H0z"/><path d="M8.67 11V9.99H6.54v-.588l2.1-2.874h.703v2.874h.618v.588h-.618V11H8.67zM7.064 9.66l-.114-.258H8.67v-2.31l.192.06-1.8 2.508zM10.76 11v-.78h.69V11h-.69zm0-2.466v-.78h.69v.78h-.69zm3.023 2.538a1.75 1.75 0 0 1-.679-.132 1.591 1.591 0 0 1-.54-.372 1.407 1.407 0 0 1-.317-.564l.6-.228c.08.212.201.376.365.492a.962.962 0 0 0 .57.174.96.96 0 0 0 .457-.102.734.734 0 0 0 .306-.288.845.845 0 0 0 .114-.45.833.833 0 0 0-.114-.444.697.697 0 0 0-.306-.282 1.009 1.009 0 0 0-.457-.096c-.072 0-.146.006-.221.018a1.12 1.12 0 0 0-.192.048l-.156-.33 1.175-1.386h-1.901v-.6h2.694v.57L14.03 8.48l-.018-.228c.268.004.503.064.707.18.205.112.363.268.475.468.115.196.173.424.173.684 0 .28-.068.534-.204.762a1.48 1.48 0 0 1-.563.534 1.685 1.685 0 0 1-.816.192zM19.25 7.5c-.41 0-.75-.34-.75-.75V3.5h-3.25c-.41 0-.75-.34-.75-.75s.34-.75.75-.75h4c.41 0 .75.34.75.75v4c0 .41-.34.75-.75.75zM6.75 16h-4c-.41 0-.75-.34-.75-.75v-4c0-.41.34-.75.75-.75s.75.34.75.75v3.25h3.25c.41 0 .75.34.75.75s-.34.75-.75.75zM2.75 7.5c-.41 0-.75-.34-.75-.75v-4c0-.41.34-.75.75-.75h4c.41 0 .75.34.75.75s-.34.75-.75.75H3.5v3.25c0 .41-.34.75-.75.75zM19.25 16h-4c-.41 0-.75-.34-.75-.75s.34-.75.75-.75h3.25v-3.25c0-.41.34-.75.75-.75s.75.34.75.75v4c0 .41-.34.75-.75.75z" fill="#232326"/></svg>