<svg width="24" height="24" fill="none" xmlns="http://www.w3.org/2000/svg"><path d="M12 22.25C6.346 22.25 1.75 17.654 1.75 12S6.346 1.75 12 1.75 22.25 6.346 22.25 12 17.654 22.25 12 22.25zm0-20c-5.376 0-9.75 4.374-9.75 9.75s4.374 9.75 9.75 9.75 9.75-4.374 9.75-9.75S17.376 2.25 12 2.25z" fill="#52525A" stroke="#52525A"/><path d="M12 16.25A4.254 4.254 0 0 1 7.75 12 4.254 4.254 0 0 1 12 7.75 4.254 4.254 0 0 1 16.25 12 4.254 4.254 0 0 1 12 16.25zm0-8A3.756 3.756 0 0 0 8.25 12 3.756 3.756 0 0 0 12 15.75 3.756 3.756 0 0 0 15.75 12 3.756 3.756 0 0 0 12 8.25z" fill="#52525A" stroke="#52525A"/><path d="M12.053 8.241a.246.246 0 0 1-.295-.19.246.246 0 0 1 .19-.293 21.512 21.512 0 0 1 9.273 0 .251.251 0 0 1 .191.292l-.002.012a.24.24 0 0 1-.253.186 21.137 21.137 0 0 0-9.104-.007zM8.733 13.838a.257.257 0 0 1-.014.349.307.307 0 0 1-.18.063.262.262 0 0 1-.193-.09 24.237 24.237 0 0 1-4.459-7.524l.246-.11.22-.075c1.001 2.712 2.473 5.198 4.38 7.388z" fill="#52525A" stroke="#52525A"/><path d="M10.88 22.69a.746.746 0 0 1-.55-1.25c2-2.2 3.48-4.75 4.4-7.58.13-.39.57-.65.96-.52s.62.51.5.9c-1.01 3.12-2.6 5.86-4.74 8.22-.16.15-.37.23-.57.23z" fill="#52525A"/></svg>