<svg width="24" height="24" fill="none" xmlns="http://www.w3.org/2000/svg"><path d="M16.481 6.196a.749.749 0 0 1 .744-1.144l4.35.67a.747.747 0 0 1 .626.86.756.756 0 0 1-.859.624L17 6.531a.758.758 0 0 1-.519-.335z" fill="#41FFB4"/><path d="M16.2 10.357a.79.79 0 0 1-.116-.447l.283-4.177a.751.751 0 0 1 1.498.106l-.28 4.164a.75.75 0 0 1-.802.696.71.71 0 0 1-.582-.342z" fill="#41FFB4"/><path d="M17.657 6.343a8 8 0 1 1-11.314 0M12 4v8" stroke="#41FFB4" stroke-width="2" stroke-linecap="round" stroke-linejoin="round"/></svg>