<svg width="24" height="24" fill="none" xmlns="http://www.w3.org/2000/svg"><g clip-path="url(#a)" fill="#41FFB4"><path d="M15 2H9C7.07 2 5.5 3.57 5.5 5.5v2.54c.55.08 1.07.28 1.5.6V5.5c0-1.1.9-2 2-2h6c1.1 0 2 .9 2 2v3.14c.43-.32.95-.52 1.5-.6V5.5C18.5 3.57 16.93 2 15 2zM9.13 19v.5c0 .28-.22.5-.5.5h-1c-.27 0-.5-.22-.5-.5V19h-1.5v.5c0 1.1.9 2 2 2h1a2 2 0 0 0 2-2V19h-1.5z"/><path d="M9.13 19v.5c0 .28-.22.5-.5.5h-1c-.27 0-.5-.22-.5-.5V19h2zM17.13 19v.5c0 .28-.22.5-.5.5h-1c-.27 0-.5-.22-.5-.5V19h-1.5v.5c0 1.1.9 2 2 2h1a2 2 0 0 0 2-2V19h-1.5z"/><path d="M17.13 19v.5c0 .28-.22.5-.5.5h-1c-.27 0-.5-.22-.5-.5V19h2zM21 11.5v4c0 1.1-.9 2-2 2H5c-1.1 0-2-.9-2-2v-4c0-1.1.9-2 2-2 .17 0 .34.02.5.07.86.22 1.5 1 1.5 1.93 0 1.1.9 2 2 2h6c1.1 0 2-.9 2-2 0-.93.64-1.71 1.5-1.93.16-.05.33-.07.5-.07 1.1 0 2 .9 2 2z"/><path d="M17 5.5v3.14c-.91.63-1.5 1.68-1.5 2.86 0 .28-.22.5-.5.5H9c-.28 0-.5-.22-.5-.5 0-1.18-.59-2.23-1.5-2.86V5.5c0-1.1.9-2 2-2h6c1.1 0 2 .9 2 2z"/></g><defs><clipPath id="a"><path fill="#fff" transform="translate(3 2)" d="M0 0h18v19.5H0z"/></clipPath></defs></svg>