<svg width="24" height="24" fill="none" xmlns="http://www.w3.org/2000/svg"><path d="M14.5 2h-6C6.57 2 5 3.57 5 5.5v4.07c.86.22 1.5 1 1.5 1.93v-6c0-1.1.9-2 2-2h6c1.1 0 2 .9 2 2v6c0-.93.64-1.71 1.5-1.93V5.5C18 3.57 16.43 2 14.5 2zM5.13 17.5v2c0 1.1.9 2 2 2h1a2 2 0 0 0 2-2v-2h-5zm3.5 2c0 .28-.22.5-.5.5h-1c-.27 0-.5-.22-.5-.5V19h2v.5zM13.13 17.5v2c0 1.1.9 2 2 2h1a2 2 0 0 0 2-2v-2h-5zm3.5 2c0 .28-.22.5-.5.5h-1c-.27 0-.5-.22-.5-.5V19h2v.5z" fill="#52525A"/><path d="M18.5 8c-.17 0-.34.01-.5.04-.55.08-1.07.28-1.5.6-.91.63-1.5 1.68-1.5 2.86 0 .28-.22.5-.5.5h-6c-.28 0-.5-.22-.5-.5 0-1.18-.59-2.23-1.5-2.86-.43-.32-.95-.52-1.5-.6-.16-.03-.33-.04-.5-.04C2.57 8 1 9.57 1 11.5v4C1 17.43 2.57 19 4.5 19h14c1.93 0 3.5-1.57 3.5-3.5v-4C22 9.57 20.43 8 18.5 8zm2 7.5c0 1.1-.9 2-2 2h-14c-1.1 0-2-.9-2-2v-4c0-1.1.9-2 2-2 .17 0 .34.02.5.07.86.22 1.5 1 1.5 1.93 0 1.1.9 2 2 2h6c1.1 0 2-.9 2-2 0-.93.64-1.71 1.5-1.93.16-.05.33-.07.5-.07 1.1 0 2 .9 2 2v4z" fill="#52525A"/></svg>