<svg width="24" height="24" fill="none" xmlns="http://www.w3.org/2000/svg"><g clip-path="url(#a)" fill="#F1F1F1"><path d="M22.23 16.46a3.27 3.27 0 0 0-1.83-1.97l-5.08-2.13a3.3 3.3 0 0 0-.78-1.36l.68-5.43c.12-.93-.17-1.86-.79-2.56a3.243 3.243 0 0 0-2.45-1.11c-.94 0-1.83.4-2.45 1.11-.61.7-.9 1.64-.79 2.56l.7 5.44c-.19.19-.35.41-.48.64-.14.24-.25.49-.32.74l-5.05 2.12c-.86.36-1.53 1.08-1.82 1.97-.3.89-.21 1.86.26 2.67a3.27 3.27 0 0 0 4.8.97l4.37-3.32c.26.07.53.1.79.1.28 0 .55-.03.81-.1l4.36 3.3c.58.43 1.26.66 1.97.66 1.17 0 2.25-.62 2.83-1.63.47-.81.57-1.79.27-2.67zM11.98 3.4c1.06 0 1.88.93 1.75 1.99l-.59 4.71c-.37-.13-.76-.2-1.15-.2-.39 0-.79.07-1.16.21l-.6-4.72c-.13-1.06.69-1.99 1.75-1.99zM5.92 18.92a1.7 1.7 0 0 1-1.06.36c-.61 0-1.2-.31-1.53-.88-.53-.92-.13-2.1.85-2.51l4.38-1.85c.14.77.53 1.49 1.15 2.01l-3.79 2.87zm6.6-3.6c-.17.06-.35.08-.53.08-.18 0-.35-.02-.53-.08-.16-.04-.32-.1-.47-.19-.32-.19-.57-.45-.74-.75a1.95 1.95 0 0 1-.19-1.48 1.968 1.968 0 0 1 .53-.93 2 2 0 0 1 2.8 0c.26.26.45.58.53.93a1.9 1.9 0 0 1-.2 1.5c-.27.47-.71.79-1.2.92zm8.14 3.06c-.33.57-.92.88-1.53.88a1.7 1.7 0 0 1-1.06-.36l-3.78-2.87c.29-.25.54-.54.73-.88.2-.36.34-.74.41-1.13l4.39 1.85c.98.41 1.37 1.59.84 2.51z"/><path d="M12.01 22.09c-.56 0-1.15-.06-1.75-.17a.744.744 0 0 1-.59-.88c.08-.41.47-.68.88-.59 1.01.19 1.93.19 2.94 0 .41-.08.8.19.88.59.08.41-.19.8-.59.88-.6.12-1.19.17-1.75.17h-.02zM4.38 11.68a.737.737 0 0 1-.71-.97c.37-1.19.98-2.26 1.82-3.19.28-.31.75-.33 1.06-.05.31.28.33.75.05 1.06-.69.76-1.19 1.65-1.5 2.63-.1.32-.4.53-.72.53v-.01zM19.63 11.66c-.32 0-.61-.2-.71-.52-.31-.98-.84-1.9-1.52-2.65a.755.755 0 0 1 .05-1.06c.31-.28.78-.25 1.06.05.83.92 1.46 2.02 1.84 3.21a.75.75 0 0 1-.49.94c-.08.02-.15.04-.23.04v-.01z"/></g><defs><clipPath id="a"><path fill="#fff" transform="translate(1.6 1.9)" d="M0 0h20.8v20.19H0z"/></clipPath></defs></svg>