<svg width="25" height="24" fill="none" xmlns="http://www.w3.org/2000/svg"><path d="M12.5 19.25c-4 0-7.25-3.25-7.25-7.25S8.5 4.75 12.5 4.75 19.75 8 19.75 12s-3.25 7.25-7.25 7.25zm0-13c-3.17 0-5.75 2.58-5.75 5.75s2.58 5.75 5.75 5.75 5.75-2.58 5.75-5.75-2.58-5.75-5.75-5.75zM12.5 22.96c-.55 0-1-.41-1-.96v-.08c0-.55.45-1 1-1s1 .45 1 1-.45 1.04-1 1.04zm7.14-2.82c-.26 0-.51-.1-.71-.29l-.13-.13a.996.996 0 1 1 1.41-1.41l.13.13a.996.996 0 0 1-.7 1.7zm-14.28 0c-.26 0-.51-.1-.71-.29a.996.996 0 0 1 0-1.41l.13-.13a.996.996 0 1 1 1.41 1.41l-.13.13c-.19.19-.45.29-.7.29zM22.5 13h-.08c-.55 0-1-.45-1-1s.45-1 1-1 1.04.45 1.04 1-.41 1-.96 1zM2.58 13H2.5c-.55 0-1-.45-1-1s.45-1 1-1 1.04.45 1.04 1-.41 1-.96 1zm16.93-7.01c-.26 0-.51-.1-.71-.29a.996.996 0 0 1 0-1.41l.13-.13a.996.996 0 1 1 1.41 1.41l-.13.13c-.19.19-.44.29-.7.29zm-14.02 0c-.26 0-.51-.1-.71-.29l-.13-.14a.996.996 0 1 1 1.41-1.41l.13.13c.39.39.39 1.02 0 1.41-.19.2-.45.3-.7.3zm7.01-2.95c-.55 0-1-.41-1-.96V2c0-.55.45-1 1-1s1 .45 1 1-.45 1.04-1 1.04z" fill="#fff"/></svg>