<svg width="24" height="24" viewBox="0 0 24 24" fill="none" xmlns="http://www.w3.org/2000/svg">
<mask id="mask0_1_5129" style="mask-type:alpha" maskUnits="userSpaceOnUse" x="0" y="0" width="24" height="24">
<rect width="24" height="24" fill="#C4C4C4"/>
</mask>
<g mask="url(#mask0_1_5129)">
<path d="M15.5362 20.0164C15.1519 20.4016 14.707 20.721 14.219 20.9618C13.5294 21.3049 12.7694 21.4838 11.9991 21.4843C11.2277 21.4833 10.4671 21.3035 9.77682 20.959C8.95592 20.5534 8.26276 19.929 7.77358 19.155C7.26785 18.3553 7.00019 17.4284 7.00157 16.4823C6.99955 15.8258 7.1276 15.1754 7.3786 14.5688C7.6296 13.9622 7.99848 13.4113 8.46377 12.9481C8.58913 12.8226 8.72113 12.704 8.8591 12.5925C8.91436 12.5477 8.96714 12.5001 9.01741 12.4497C9.16542 12.3095 9.28428 12.1412 9.36716 11.955C9.45004 11.7687 9.49538 11.568 9.50044 11.3642L9.50044 3.98205C9.4996 3.6536 9.56373 3.32824 9.68947 3.0248C9.81521 2.72137 10 2.44571 10.2329 2.21412C10.4645 1.9812 10.74 1.79658 11.0434 1.67084C11.3469 1.54509 11.6722 1.48097 12.0007 1.4818C12.6636 1.4819 13.2994 1.74502 13.7681 2.21377C14.2369 2.68252 14.5001 3.31845 14.5002 3.98136L14.5002 11.3635C14.5077 11.6035 14.5695 11.8386 14.6808 12.0513C14.7921 12.264 14.9502 12.4487 15.1431 12.5916C15.7245 13.0591 16.1933 13.6515 16.5147 14.3247C16.8361 14.9979 17.0019 15.7347 17 16.4807C17.0021 17.1376 16.8737 17.7885 16.6224 18.3954C16.3712 19.0023 16.002 19.5533 15.5362 20.0164V20.0164ZM9.16881 13.6559C8.79666 14.0264 8.50156 14.4671 8.30081 14.9524C8.10005 15.4376 7.99743 15.9578 7.99904 16.483C7.99549 17.2277 8.20186 17.9585 8.59428 18.5915C8.9867 19.2245 9.54944 19.7343 10.2181 20.0623C10.7701 20.3395 11.3794 20.4829 11.9971 20.481C12.6131 20.4811 13.2209 20.3385 13.7726 20.0644C14.1634 19.8718 14.5199 19.6163 14.8277 19.3079C15.1999 18.9375 15.495 18.4967 15.6957 18.0115C15.8965 17.5262 15.9988 17.006 15.9972 16.4809C15.9987 15.8841 15.8663 15.2947 15.6092 14.7561C15.3522 14.2176 14.9773 13.7436 14.5123 13.3695C14.2038 13.1325 13.9525 12.8294 13.7767 12.4824C13.601 12.1353 13.5053 11.7531 13.4969 11.3642L13.4969 3.98205C13.4968 3.58431 13.3388 3.20282 13.0575 2.92157C12.7763 2.64032 12.3948 2.48228 11.9971 2.48222C11.8 2.48179 11.6048 2.52049 11.4227 2.59598C11.2407 2.67147 11.0754 2.78231 10.9364 2.92209C10.7966 3.06104 10.6858 3.22634 10.6103 3.40839C10.5348 3.59045 10.4963 3.78548 10.4967 3.98257L10.4965 11.3649C10.492 11.7001 10.4213 12.0311 10.2882 12.3387C10.155 12.6464 9.96216 12.9246 9.72089 13.1574C9.64533 13.233 9.56585 13.3046 9.48266 13.3718C9.37262 13.4609 9.26749 13.5557 9.16743 13.6559H9.16881Z" fill="#52525A"/>
<path d="M11.8516 6.33624C11.8052 6.38279 11.7501 6.41973 11.6895 6.44497C11.6288 6.47021 11.5638 6.48324 11.4981 6.48332L10.4982 6.48332C10.3656 6.4833 10.2385 6.43063 10.1447 6.33688C10.051 6.24313 9.99831 6.11598 9.99829 5.9834C9.99831 5.85082 10.051 5.72367 10.1447 5.62992C10.2385 5.53617 10.3656 5.48349 10.4982 5.48347L11.4981 5.48347C11.5971 5.48335 11.6939 5.51263 11.7763 5.5676C11.8586 5.62257 11.9228 5.70076 11.9607 5.79225C11.9986 5.88375 12.0084 5.98442 11.989 6.08152C11.9696 6.17862 11.9218 6.26777 11.8516 6.33766V6.33624Z" fill="#52525A"/>
<path d="M14.4982 16.4822C14.4978 16.8706 14.407 17.2537 14.2332 17.601C14.0594 17.9483 13.8072 18.2505 13.4966 18.4837C13.1859 18.7168 12.8254 18.8745 12.4433 18.9444C12.0613 19.0143 11.6681 18.9945 11.295 18.8864C10.8995 18.776 10.5382 18.5681 10.244 18.2815C9.94981 17.995 9.73226 17.6393 9.61146 17.2468C9.4505 16.7371 9.45619 16.1894 9.62786 15.6832C9.79954 15.1771 10.1282 14.7389 10.566 14.4323C10.8461 14.2476 11.0772 13.9977 11.2394 13.704C11.4016 13.4102 11.4903 13.0814 11.4973 12.7459L11.4971 10.8623C11.4972 10.7297 11.55 10.6026 11.6437 10.5089C11.7375 10.4151 11.8645 10.3623 11.9971 10.3623C12.0629 10.3622 12.1281 10.375 12.1889 10.4001C12.2497 10.4253 12.3048 10.4622 12.3513 10.5087C12.3978 10.5552 12.4348 10.6104 12.4599 10.6712C12.485 10.7319 12.4978 10.7972 12.4977 10.863L12.497 12.7757C12.5075 13.1071 12.5979 13.431 12.7606 13.7199C12.9234 14.0087 13.1538 14.254 13.4318 14.4346C13.7611 14.6651 14.03 14.9716 14.2156 15.3281C14.4012 15.6846 14.4982 16.0803 14.4982 16.4822Z" fill="#52525A"/>
</g>
</svg>
