<svg width="24" height="24" fill="none" xmlns="http://www.w3.org/2000/svg"><mask id="a" style="mask-type:alpha" maskUnits="userSpaceOnUse" x="0" y="0" width="24" height="24"><path fill="#C4C4C4" d="M0 0h24v24H0z"/></mask><g mask="url(#a)" fill="#41FFB4"><path d="M15.536 20.017c-.384.385-.829.704-1.317.945a4.99 4.99 0 0 1-2.22.523 4.99 4.99 0 0 1-2.222-.526 4.98 4.98 0 0 1-2.775-4.476 4.965 4.965 0 0 1 1.857-3.89c.055-.045.108-.093.158-.143a1.549 1.549 0 0 0 .483-1.086V3.982a2.484 2.484 0 0 1 .733-1.768A2.484 2.484 0 0 1 12 1.482a2.5 2.5 0 0 1 2.5 2.5v7.382a1.59 1.59 0 0 0 .642 1.228A4.974 4.974 0 0 1 17 16.48a4.964 4.964 0 0 1-1.464 3.536zm-6.367-6.36a3.972 3.972 0 0 0-1.17 2.826 3.966 3.966 0 0 0 2.22 3.58 3.99 3.99 0 0 0 3.555.002 3.97 3.97 0 0 0 1.054-.757 3.97 3.97 0 0 0 1.17-2.827 3.98 3.98 0 0 0-1.486-3.111 2.6 2.6 0 0 1-1.015-2.006V3.982a1.5 1.5 0 0 0-3 0v7.383a2.538 2.538 0 0 1-.776 1.793 3 3 0 0 1-.238.214c-.11.09-.216.184-.316.284h.002z"/><path d="M11.852 6.336a.5.5 0 0 1-.354.147h-1a.5.5 0 0 1 0-1h1a.5.5 0 0 1 .354.855v-.002zM14.498 16.482a2.507 2.507 0 0 1-3.203 2.405 2.45 2.45 0 0 1-1.684-1.64 2.512 2.512 0 0 1 .955-2.815 2.072 2.072 0 0 0 .931-1.686v-1.884a.5.5 0 0 1 1 .001v1.913a2.056 2.056 0 0 0 .935 1.659 2.5 2.5 0 0 1 1.066 2.047z"/></g></svg>