<svg width="24" height="24" fill="none" xmlns="http://www.w3.org/2000/svg"><mask id="a" style="mask-type:alpha" maskUnits="userSpaceOnUse" x="0" y="0" width="24" height="24"><path fill="#C4C4C4" d="M0 0h24v24H0z"/></mask><g mask="url(#a)" fill="#52525A"><path d="M15.536 20.016c-.384.386-.829.705-1.317.946-.69.343-1.45.522-2.22.522a4.99 4.99 0 0 1-2.222-.525 4.98 4.98 0 0 1-2.775-4.477 4.965 4.965 0 0 1 1.857-3.89c.055-.044.108-.092.158-.142a1.55 1.55 0 0 0 .483-1.086V3.982a2.484 2.484 0 0 1 .733-1.768A2.484 2.484 0 0 1 12 1.482a2.5 2.5 0 0 1 2.5 2.5v7.381a1.59 1.59 0 0 0 .642 1.229A4.974 4.974 0 0 1 17 16.48a4.964 4.964 0 0 1-1.464 3.535zm-6.367-6.36a3.972 3.972 0 0 0-1.17 2.827 3.966 3.966 0 0 0 2.22 3.58 3.99 3.99 0 0 0 3.555.002 3.97 3.97 0 0 0 1.054-.757 3.97 3.97 0 0 0 1.17-2.827 3.98 3.98 0 0 0-1.486-3.112 2.6 2.6 0 0 1-1.015-2.005V3.982a1.5 1.5 0 0 0-3 0v7.383a2.538 2.538 0 0 1-.776 1.792 3.02 3.02 0 0 1-.238.215c-.11.089-.216.184-.316.284h.002z"/><path d="M11.852 6.336a.5.5 0 0 1-.354.147h-1a.5.5 0 0 1 0-1h1a.5.5 0 0 1 .354.855v-.002zM14.498 16.482a2.506 2.506 0 0 1-3.203 2.404 2.45 2.45 0 0 1-1.684-1.64 2.513 2.513 0 0 1 .955-2.814 2.073 2.073 0 0 0 .931-1.686v-1.884a.5.5 0 0 1 1 .001v1.913a2.057 2.057 0 0 0 .935 1.659 2.5 2.5 0 0 1 1.066 2.047z"/></g></svg>