<svg width="24" height="24" viewBox="0 0 24 24" fill="none" xmlns="http://www.w3.org/2000/svg">
<mask id="mask0_1_4317" style="mask-type:alpha" maskUnits="userSpaceOnUse" x="0" y="0" width="24" height="24">
<rect width="24" height="24" fill="#C4C4C4"/>
</mask>
<g mask="url(#mask0_1_4317)">
<path d="M15.5362 20.0166C15.1519 20.4018 14.707 20.7211 14.219 20.9619C13.5294 21.3051 12.7694 21.484 11.9991 21.4845C11.2277 21.4835 10.4671 21.3037 9.77682 20.9592C8.95592 20.5536 8.26276 19.9292 7.77358 19.1552C7.26785 18.3555 7.00019 17.4286 7.00157 16.4825C6.99955 15.826 7.1276 15.1756 7.3786 14.569C7.6296 13.9624 7.99848 13.4115 8.46377 12.9483C8.58913 12.8228 8.72113 12.7041 8.8591 12.5927C8.91436 12.5479 8.96714 12.5003 9.01741 12.4499C9.16542 12.3097 9.28428 12.1414 9.36716 11.9551C9.45004 11.7689 9.49538 11.5682 9.50044 11.3644L9.50044 3.98224C9.4996 3.65378 9.56373 3.32842 9.68947 3.02499C9.81521 2.72155 10 2.44589 10.2329 2.2143C10.4645 1.98138 10.74 1.79676 11.0434 1.67102C11.3469 1.54528 11.6722 1.48115 12.0007 1.48199C12.6636 1.48209 13.2994 1.7452 13.7681 2.21395C14.2369 2.6827 14.5001 3.31864 14.5002 3.98155L14.5002 11.3637C14.5077 11.6037 14.5695 11.8388 14.6808 12.0515C14.7921 12.2642 14.9502 12.4489 15.1431 12.5918C15.7245 13.0593 16.1933 13.6517 16.5147 14.3249C16.8361 14.9981 17.0019 15.7349 17 16.4809C17.0021 17.1378 16.8737 17.7887 16.6224 18.3956C16.3712 19.0025 16.002 19.5534 15.5362 20.0166V20.0166ZM9.16881 13.6561C8.79666 14.0266 8.50156 14.4673 8.30081 14.9526C8.10005 15.4378 7.99743 15.958 7.99904 16.4831C7.99549 17.2279 8.20186 17.9587 8.59428 18.5917C8.9867 19.2247 9.54944 19.7344 10.2181 20.0625C10.7701 20.3397 11.3794 20.4831 11.9971 20.4812C12.6131 20.4813 13.2209 20.3387 13.7726 20.0646C14.1634 19.872 14.5199 19.6165 14.8277 19.3081C15.1999 18.9376 15.495 18.4969 15.6957 18.0116C15.8965 17.5264 15.9988 17.0062 15.9972 16.4811C15.9987 15.8843 15.8663 15.2948 15.6092 14.7563C15.3522 14.2177 14.9773 13.7438 14.5123 13.3697C14.2038 13.1327 13.9525 12.8296 13.7767 12.4825C13.601 12.1355 13.5053 11.7533 13.4969 11.3644L13.4969 3.98224C13.4968 3.58449 13.3388 3.203 13.0575 2.92175C12.7763 2.6405 12.3948 2.48246 11.9971 2.4824C11.8 2.48197 11.6048 2.52067 11.4227 2.59616C11.2407 2.67166 11.0754 2.78249 10.9364 2.92227C10.7966 3.06122 10.6858 3.22652 10.6103 3.40858C10.5348 3.59064 10.4963 3.78567 10.4967 3.98276L10.4965 11.3651C10.492 11.7003 10.4213 12.0312 10.2882 12.3389C10.155 12.6466 9.96216 12.9248 9.72089 13.1575C9.64533 13.2331 9.56585 13.3048 9.48266 13.3719C9.37262 13.4611 9.26749 13.5559 9.16743 13.6561H9.16881Z" fill="#41FFB4"/>
<path d="M11.8516 6.33618C11.8052 6.38273 11.7501 6.41967 11.6895 6.44491C11.6288 6.47015 11.5638 6.48318 11.4981 6.48326L10.4982 6.48326C10.3656 6.48324 10.2385 6.43056 10.1447 6.33682C10.051 6.24307 9.99831 6.11592 9.99829 5.98334C9.99831 5.85076 10.051 5.72361 10.1447 5.62986C10.2385 5.53611 10.3656 5.48343 10.4982 5.48341L11.4981 5.48341C11.5971 5.48329 11.6939 5.51257 11.7763 5.56754C11.8586 5.62251 11.9228 5.7007 11.9607 5.79219C11.9986 5.88368 12.0084 5.98436 11.989 6.08146C11.9696 6.17856 11.9218 6.2677 11.8516 6.3376V6.33618Z" fill="#41FFB4"/>
<path d="M14.4982 16.4822C14.4978 16.8706 14.407 17.2537 14.2332 17.6011C14.0594 17.9484 13.8072 18.2506 13.4966 18.4837C13.1859 18.7169 12.8254 18.8746 12.4433 18.9445C12.0613 19.0144 11.6681 18.9946 11.295 18.8865C10.8995 18.7761 10.5382 18.5681 10.244 18.2816C9.94981 17.9951 9.73226 17.6393 9.61146 17.2468C9.4505 16.7372 9.45619 16.1894 9.62786 15.6833C9.79954 15.1772 10.1282 14.7389 10.566 14.4324C10.8461 14.2477 11.0772 13.9978 11.2394 13.704C11.4016 13.4103 11.4903 13.0814 11.4973 12.7459L11.4971 10.8623C11.4972 10.7297 11.55 10.6027 11.6437 10.5089C11.7375 10.4152 11.8645 10.3624 11.9971 10.3624C12.0629 10.3623 12.1281 10.3751 12.1889 10.4002C12.2497 10.4253 12.3048 10.4623 12.3513 10.5088C12.3978 10.5553 12.4348 10.6104 12.4599 10.6712C12.485 10.732 12.4978 10.7972 12.4977 10.863L12.497 12.7758C12.5075 13.1072 12.5979 13.4311 12.7606 13.7199C12.9234 14.0088 13.1538 14.254 13.4318 14.4346C13.7611 14.6651 14.03 14.9717 14.2156 15.3282C14.4012 15.6847 14.4982 16.0803 14.4982 16.4822Z" fill="#41FFB4"/>
</g>
</svg>
