<svg width="24" height="24" viewBox="0 0 24 24" fill="none" xmlns="http://www.w3.org/2000/svg">
<path d="M1 9.99979V13.9998C1 15.9998 1.96 16.9998 3.88 16.9998H5.2528C5.608 16.9998 5.9632 17.1098 6.2704 17.2998L9.0736 19.1298C11.4928 20.7098 13.48 19.5598 13.48 16.5898V7.40979C13.48 4.42979 11.4928 3.28979 9.0736 4.86979L6.2704 6.69979C5.9632 6.88979 5.608 6.99979 5.2528 6.99979H3.88C1.96 6.99979 1 7.99979 1 9.99979Z" stroke="white" stroke-width="1.5"/>
<path d="M20.2 3C24.04 8.33077 24.04 15.6692 20.2 21" stroke="white" stroke-width="1.5" stroke-linecap="round" stroke-linejoin="round"/>
<path d="M16.3601 8C18.0689 10.37 18.0689 13.63 16.3601 16" stroke="white" stroke-width="1.5" stroke-linecap="round" stroke-linejoin="round"/>
<path d="M18.1169 5.5C20.8913 9.35 20.8913 14.65 18.1169 18.5" stroke="white" stroke-width="1.5" stroke-linecap="round" stroke-linejoin="round"/>
</svg>
