<svg width="24" height="24" fill="none" xmlns="http://www.w3.org/2000/svg"><path d="M1 10v4c0 2 .96 3 2.88 3h1.373c.355 0 .71.11 1.017.3l2.804 1.83c2.419 1.58 4.406.43 4.406-2.54V7.41c0-2.98-1.987-4.12-4.406-2.54L6.27 6.7c-.307.19-.662.3-1.017.3H3.88C1.96 7 1 8 1 10z" stroke="#fff" stroke-width="1.5"/><path d="M20.2 3c3.84 5.33 3.84 12.67 0 18M16.36 8a6.883 6.883 0 0 1 0 8" stroke="#fff" stroke-width="1.5" stroke-linecap="round" stroke-linejoin="round"/><path d="M18.117 5.5c2.774 3.85 2.774 9.15 0 13" stroke="#fff" stroke-width="1.5" stroke-linecap="round" stroke-linejoin="round"/></svg>