<svg width="24" height="24" fill="none" xmlns="http://www.w3.org/2000/svg"><path d="M19.457 16.354c.078-.302 0-.41-.13-.45-.69-.425-1.15-.904-1.638-1.61-.393-.822-.602-1.078-.574-2.235a3.752 3.752 0 0 1 .279-1.673c.278-.573.532-1.054 1.056-1.388l.502-.446c.121-.092.121-.274.06-.398-.438-.452-.792-.916-1.579-1.318-.319-.185-.8-.328-1.434-.355-.447 0-.882-.013-1.43.089-.44.071-.9.22-1.339.446l-.633.302c-.402.098-.767.048-1.116-.063L10.31 6.76c-.408-.15-.885-.23-1.45-.223-.559-.002-1.112.022-1.618.279a7.858 7.858 0 0 0-1.116.67c-.413.385-.806.792-1.115 1.282-.238.308-.407.804-.594 1.267-.17.462-.249.805-.318 1.223-.122.81-.108 1.301-.08 1.916.061 1.054.212 1.437.323 2.064.133.533.317.965.502 1.395.187.52.492.98.78 1.45.254.487.651 1.022 1.06 1.562.354.39.518.686 1.191 1.168.452.282.519.337.761.45.224.055.455.103.781.055.213-.045.412-.077.726-.223l.669-.28c.25-.11.494-.222.948-.334.297-.039.595-.069.893-.056.186-.003.498.069.948.224.28.093.433.102 1.004.39.242.079.396.216.78.2.37-.05.718-.181.985-.335.294-.215.641-.378.84-.689a4.71 4.71 0 0 0 .518-.57l.67-1.004c.214-.256.408-.552.57-.912.196-.426.346-.898.49-1.375zM11.73 6.212c.006.223.147.156.225.185.296.034.441-.045.642-.083.388-.111.538-.193.725-.28.214-.126.427-.218.641-.417.202-.147.33-.272.502-.474.228-.235.305-.346.474-.586.19-.275.28-.458.419-.753.093-.237.206-.464.25-.725.05-.236.113-.465.112-.725.016-.128-.02-.203-.056-.28-.14-.082-.213-.08-.377-.068-.192 0-.438.03-.71.152-.3.138-.587.285-.809.475a3.53 3.53 0 0 0-.558.446c-.194.177-.36.382-.53.585-.192.23-.342.429-.43.632-.118.226-.2.453-.295.68-.1.24-.177.494-.225.762-.027.167-.02.283 0 .474z" fill="#41FFB4"/><path d="M11.73 6.212c.006.223.147.156.225.185.296.034.441-.045.642-.083.388-.111.538-.193.725-.28.214-.126.427-.218.641-.417.202-.147.33-.272.502-.474.228-.235.305-.346.474-.586.19-.275.28-.458.419-.753.093-.237.206-.464.25-.725.05-.236.113-.465.112-.725.016-.128-.02-.203-.056-.28-.14-.082-.213-.08-.377-.068-.192 0-.438.03-.71.152-.3.138-.587.285-.809.475a3.53 3.53 0 0 0-.558.446c-.194.177-.36.382-.53.585-.192.23-.342.429-.43.632-.118.226-.2.453-.295.68-.1.24-.177.494-.225.762-.027.167-.02.283 0 .474zM19.457 16.354c.078-.302 0-.41-.13-.45-.69-.425-1.15-.904-1.638-1.61-.393-.822-.602-1.078-.574-2.235a3.752 3.752 0 0 1 .279-1.673c.278-.573.532-1.054 1.056-1.388l.502-.446c.121-.092.121-.274.06-.398-.438-.452-.792-.916-1.579-1.318-.319-.185-.8-.328-1.434-.355-.447 0-.882-.013-1.43.089-.44.071-.9.22-1.339.446l-.633.302c-.402.098-.767.048-1.116-.063L10.31 6.76c-.408-.15-.885-.23-1.45-.223-.559-.002-1.112.022-1.618.279a7.858 7.858 0 0 0-1.116.67c-.413.385-.806.792-1.115 1.282-.238.308-.407.804-.594 1.267-.17.462-.249.805-.318 1.223-.122.81-.108 1.301-.08 1.916.061 1.054.212 1.437.323 2.064.133.533.317.965.502 1.395.187.52.492.98.78 1.45.254.487.651 1.022 1.06 1.562.354.39.518.686 1.191 1.168.452.282.519.337.761.45.224.055.455.103.781.055.213-.045.412-.077.726-.223l.669-.28c.25-.11.494-.222.948-.334.297-.039.595-.069.893-.056.186-.003.498.069.948.224.28.093.433.102 1.004.39.242.079.396.216.78.2.37-.05.718-.181.985-.335.294-.215.641-.378.84-.689a4.71 4.71 0 0 0 .518-.57l.67-1.004c.214-.256.408-.552.57-.912.196-.426.346-.898.49-1.375z" fill="#41FFB4"/><path d="M11.73 6.212c.006.223.147.156.225.185.296.034.441-.045.642-.083.388-.111.538-.193.725-.28.214-.126.427-.218.641-.417.202-.147.33-.272.502-.474.228-.235.305-.346.474-.586.19-.275.28-.458.419-.753.093-.237.206-.464.25-.725.05-.236.113-.465.112-.725.016-.128-.02-.203-.056-.28-.14-.082-.213-.08-.377-.068-.192 0-.438.03-.71.152-.3.138-.587.285-.809.475a3.53 3.53 0 0 0-.558.446c-.194.177-.36.382-.53.585-.192.23-.342.429-.43.632-.118.226-.2.453-.295.68-.1.24-.177.494-.225.762-.027.167-.02.283 0 .474z" fill="#41FFB4"/></svg>