<svg width="24" height="24" fill="none" xmlns="http://www.w3.org/2000/svg"><path d="M3.332 6.962c-.023 0-.023.014-.035.027-.988 1.677-1.568 2.79-2.182 4.164l-.068.152-.012.055a.442.442 0 0 0 .035.412c.363.687 2.398 1.498 6.933 1.498 3.387 0 6.99-.66 6.99-1.897 0-1.168-3.546-1.869-6.99-1.869-1.148 0-2.273.18-2.592.248.307-.577 1.603-2.68 1.603-2.694.023-.027.023-.027.023-.04V6.99c-.023-.014-.034-.028-.057-.028H3.332zm1.318 4.411c0-.247 1.285-.604 3.353-.604 2.069 0 3.342.357 3.342.604 0 .275-1.273.619-3.342.619s-3.353-.344-3.353-.619z" fill="#41FFB4"/><path d="M5.9 17.544c.58.014 16.89.7 17.255-6.294.295-5.786-11.708-5.236-11.708-5.236-.022 0-.102 0-.102.069 0 .082.034.096.08.096 3.33 0 8.74 1.608 8.57 5.07-.137 2.804-4.365 6.102-14.095 6.102-.045 0-.09.055-.09.097 0 .04.034.082.09.096z" fill="#41FFB4"/></svg>