<svg width="24" height="24" fill="none" xmlns="http://www.w3.org/2000/svg"><path d="m22.61 21.447-.405.553c-2.194-1.63-3.084-3.871-3.12-6.548-.03.044-.048.066-.062.091-1.362 2.343-3.364 3.823-6 4.436a8.467 8.467 0 0 1-2.835.159c-2.262-.242-4.183-1.183-5.74-2.842-1.201-1.28-1.98-2.79-2.287-4.52-.5-2.825.164-5.364 2.014-7.558C5.553 3.584 7.323 2.58 9.423 2.165a8.606 8.606 0 0 1 2.337-.14c4.066.312 7.39 3.195 8.243 7.085.253 1.149.26 2.303.058 3.462-.174.997-.283 2.002-.268 3.016.017 1.21.224 2.38.777 3.473a6.653 6.653 0 0 0 1.933 2.301l.108.085zM6.504 6.014C5.175 5.997 4.03 7.109 4.004 8.426 3.976 9.825 5.056 10.96 6.42 10.99a2.48 2.48 0 0 0 2.565-2.462c.02-1.372-1.089-2.497-2.48-2.514zm12.243 4.404c-.006-1.38-1.127-2.498-2.495-2.49a2.495 2.495 0 0 0-2.482 2.514 2.494 2.494 0 0 0 2.5 2.47 2.494 2.494 0 0 0 2.477-2.494zm-9.14-4.44a2.498 2.498 0 0 0 2.476 2.495 2.497 2.497 0 0 0 2.502-2.47 2.496 2.496 0 0 0-2.482-2.513 2.498 2.498 0 0 0-2.497 2.488zM7.391 17.092a2.476 2.476 0 0 0 2.495-2.48 2.479 2.479 0 0 0-2.47-2.492 2.479 2.479 0 0 0-2.502 2.474 2.476 2.476 0 0 0 2.477 2.498zm3.493-1.32a2.48 2.48 0 0 0 2.46 2.493 2.482 2.482 0 0 0 2.513-2.463 2.48 2.48 0 0 0-2.478-2.51 2.48 2.48 0 0 0-2.495 2.48zm-1.416-4.676a1.623 1.623 0 1 0 3.247-.005c0-.895-.727-1.625-1.62-1.626a1.625 1.625 0 0 0-1.627 1.63z" fill="#41FFB4"/></svg>