<svg width="72" height="72" fill="none" xmlns="http://www.w3.org/2000/svg"><path d="M28.5 12.81c4.14.78 10.2 2.61 13.5 3.69 8.25 2.85 11.07 6.39 11.07 14.37 0 7.8-4.8 10.74-10.92 7.8V24.15c0-1.65-.3-3.24-1.92-3.69-1.23-.39-1.95.75-1.95 2.43v36.3l-9.78-3.12V12.81zm11.61 40.05 15.75-5.61c1.8-.63 2.07-1.53.63-2.01-1.47-.48-4.08-.33-5.88.3l-10.5 3.69v-5.88l.63-.21S43.77 42 48 41.61c4.29-.48 9.51.06 13.59 1.59 4.62 1.47 5.16 3.63 3.99 5.1-1.2 1.5-4.08 2.55-4.08 2.55L40.11 58.5v-5.64zm-29.61-.6C5.79 51 4.98 48.15 7.14 46.5c2.01-1.5 5.4-2.55 5.4-2.55L26.58 39v5.64L16.5 48.27c-1.8.63-2.07 1.53-.63 2.01 1.44.48 4.08.36 5.85-.3l4.86-1.74v5.07l-.96.18c-4.86.78-10.02.51-15.12-1.23z" fill="#41FFB4"/></svg>