<svg width="22" height="18" fill="none" xmlns="http://www.w3.org/2000/svg"><path stroke="#52525A" stroke-width="1.5" d="M.75.75h20.5v16.5H.75z"/><path d="M6.94 13v-1.68H3.39v-.98l3.5-4.79h1.17v4.79h1.03v.98H8.06V13H6.94zm-2.68-2.23-.19-.43h2.87V6.49l.32.1-3 4.18zM10.425 13v-1.3h1.15V13h-1.15zm0-4.11v-1.3h1.15v1.3h-1.15zm5.037 4.23c-.4 0-.777-.073-1.13-.22a2.653 2.653 0 0 1-.9-.62 2.346 2.346 0 0 1-.53-.94l1-.38c.133.353.336.627.61.82.273.193.59.29.95.29.293 0 .546-.057.76-.17.22-.113.39-.273.51-.48.126-.207.19-.457.19-.75 0-.287-.064-.533-.19-.74a1.161 1.161 0 0 0-.51-.47 1.681 1.681 0 0 0-.76-.16c-.12 0-.244.01-.37.03a1.87 1.87 0 0 0-.32.08l-.26-.55 1.96-2.31h-3.17v-1h4.49v.95l-1.92 2.3-.03-.38c.446.007.84.107 1.18.3.34.187.603.447.79.78.193.327.29.707.29 1.14 0 .467-.114.89-.34 1.27-.227.373-.54.67-.94.89-.394.213-.847.32-1.36.32z" fill="#52525A"/></svg>