<svg width="20" height="20" fill="none" xmlns="http://www.w3.org/2000/svg"><path d="M14.562 1H5.434C2.989 1 1 3.031 1 5.524v8.952C1 16.97 2.99 19 5.434 19h9.128C17.011 19 19 16.969 19 14.476V5.524C19 3.03 17.01 1 14.562 1zM6.745 9.798v.027c0 .438-.365.82-.799.82h-.935c-.433 0-.797-.382-.797-.82V5.668c.04-.433.37-.81.797-.81h.935c.437 0 .8.395.8.838v4.103zm4.903 5.817v.108c0 .46-.357.707-.809.707H9.16c-.451 0-.808-.326-.808-.786V14.463c0-.936.728-1.699 1.648-1.699.92 0 1.648.763 1.648 1.7v1.15zm4.138-5.817v.027c0 .438-.364.82-.797.82h-.976c-.433 0-.799-.382-.799-.82V5.668c.04-.433.371-.81.8-.81h.975c.433 0 .797.395.797.838v4.103z" stroke="#52525A" stroke-width="1.5"/></svg>