<svg width="24" height="24" viewBox="0 0 24 24" fill="none" xmlns="http://www.w3.org/2000/svg">
<path d="M14.1302 11.3401C14.5202 9.70008 13.0902 8.27003 11.4502 8.66003C10.6802 8.85003 10.0502 9.48005 9.86022 10.2501C9.47023 11.8901 10.9002 13.32 12.5402 12.93C13.3202 12.74 13.9502 12.1101 14.1302 11.3401Z" stroke="#52525A" stroke-width="1.5" stroke-linecap="round" stroke-linejoin="round"/>
<path d="M18.0099 17.19C19.7199 15.59 20.7899 13.32 20.7899 10.79C20.7899 5.92998 16.85 2 12 2C7.14995 2 3.20996 5.93998 3.20996 10.79C3.20996 13.33 4.28996 15.62 6.01996 17.22" stroke="#52525A" stroke-width="1.5" stroke-linecap="round" stroke-linejoin="round"/>
<path d="M7.99977 14.55C7.07977 13.57 6.50977 12.25 6.50977 10.79C6.50977 7.76004 8.96977 5.30005 11.9998 5.30005C15.0298 5.30005 17.4898 7.76004 17.4898 10.79C17.4898 12.25 16.9198 13.56 15.9998 14.55" stroke="#52525A" stroke-width="1.5" stroke-linecap="round" stroke-linejoin="round"/>
<path d="M10.3002 16.66L8.86022 18.4501C7.72022 19.8801 8.73022 21.99 10.5602 21.99H13.4302C15.2602 21.99 16.2802 19.8701 15.1302 18.4501L13.6902 16.66C12.8302 15.57 11.1702 15.57 10.3002 16.66Z" stroke="#52525A" stroke-width="1.5" stroke-linecap="round" stroke-linejoin="round"/>
</svg>
