<svg width="72" height="72" fill="none" xmlns="http://www.w3.org/2000/svg"><path d="M9.995 20.886c-.068 0-.068.042-.103.082-2.966 5.03-4.705 8.37-6.547 12.492l-.204.453-.035.166c-.17.412-.136.865.103 1.236 1.09 2.061 7.195 4.494 20.8 4.494 10.162 0 20.971-1.979 20.971-5.689 0-3.505-10.639-5.607-20.97-5.607-3.445 0-6.82.536-7.776.742.921-1.731 4.808-8.04 4.808-8.08.068-.082.068-.082.068-.124v-.082c-.068-.041-.102-.083-.17-.083H9.995zM13.95 34.12c0-.742 3.854-1.814 10.06-1.814 6.205 0 10.025 1.072 10.025 1.814 0 .824-3.82 1.855-10.025 1.855-6.207 0-10.06-1.03-10.06-1.855z" fill="#52525A"/><path d="M17.7 52.632c1.74.04 50.672 2.102 51.764-18.882.886-17.357-35.123-15.708-35.123-15.708-.068 0-.307 0-.307.206 0 .247.103.289.24.289 9.99 0 26.221 4.823 25.71 15.213-.41 8.41-13.094 18.304-42.283 18.304-.136 0-.273.165-.273.289 0 .124.102.247.273.289z" fill="#52525A"/></svg>