<svg width="72" height="72" fill="none" xmlns="http://www.w3.org/2000/svg"><path d="M67.832 64.34 66.616 66c-6.584-4.89-9.253-11.614-9.358-19.643-.092.131-.146.198-.189.272-4.085 7.028-10.092 11.468-18.002 13.307-2.798.65-5.643.783-8.503.477-6.787-.726-12.55-3.549-17.22-8.524-3.604-3.84-5.941-8.37-6.86-13.56-1.502-8.477.49-16.092 6.04-22.675 4.134-4.902 9.446-7.913 15.743-9.158a25.82 25.82 0 0 1 7.013-.42c12.2.936 22.171 9.585 24.73 21.252.757 3.448.779 6.91.173 10.39-.521 2.99-.85 6.003-.805 9.044.052 3.635.674 7.143 2.331 10.42 1.394 2.758 3.355 5.035 5.801 6.905.095.073.188.148.322.253zM19.51 18.04c-3.986-.05-7.419 3.287-7.498 7.238-.083 4.196 3.155 7.598 7.245 7.692 4.254.097 7.63-3.182 7.694-7.385.064-4.117-3.265-7.49-7.44-7.544zm36.73 13.213c-.02-4.138-3.384-7.494-7.486-7.467a7.487 7.487 0 0 0-7.448 7.54c.02 4.09 3.394 7.423 7.502 7.409 4.1-.015 7.45-3.389 7.431-7.482zM28.814 17.934c-.017 4.09 3.339 7.469 7.433 7.485 4.103.017 7.487-3.324 7.505-7.41.018-4.15-3.317-7.527-7.448-7.54-4.111-.014-7.472 3.336-7.49 7.465zm-6.64 33.341c4.154.007 7.479-3.296 7.485-7.437.006-4.132-3.301-7.469-7.41-7.479-4.155-.01-7.495 3.293-7.504 7.423-.01 4.154 3.295 7.487 7.43 7.493zm10.48-3.958c-.014 4.105 3.293 7.456 7.378 7.477 4.16.022 7.522-3.273 7.541-7.387.019-4.174-3.282-7.518-7.433-7.531a7.437 7.437 0 0 0-7.486 7.44zm-4.25-14.03a4.869 4.869 0 0 0 4.896 4.874c2.678-.003 4.846-2.19 4.846-4.887 0-2.687-2.18-4.875-4.86-4.88a4.876 4.876 0 0 0-4.881 4.893z" fill="#52525A"/></svg>