<svg width="72" height="72" fill="none" xmlns="http://www.w3.org/2000/svg"><path d="M55.489 48.141c.2-.776 0-1.05-.337-1.155-1.774-1.094-2.956-2.323-4.209-4.14-1.008-2.11-1.548-2.768-1.475-5.743-.068-1.434.11-2.867.717-4.3.715-1.472 1.368-2.71 2.715-3.567l1.29-1.147c.312-.235.311-.702.152-1.021-1.125-1.163-2.033-2.356-4.056-3.39-.82-.474-2.056-.841-3.685-.91-1.15 0-2.267-.034-3.677.227-1.13.184-2.31.567-3.44 1.146l-1.628.777c-1.032.252-1.97.125-2.867-.161l-3.01-1.273c-1.048-.386-2.275-.593-3.728-.573-1.434-.005-2.856.055-4.157.716-1.032.498-1.97 1.088-2.867 1.72-1.064.992-2.073 2.038-2.868 3.298-.612.79-1.046 2.067-1.526 3.255-.438 1.19-.639 2.07-.818 3.145-.314 2.08-.276 3.344-.203 4.925.155 2.707.542 3.692.827 5.304.343 1.37.815 2.479 1.29 3.584.483 1.336 1.266 2.521 2.007 3.727.653 1.253 1.673 2.629 2.724 4.014.909 1.004 1.33 1.764 3.061 3.002 1.162.725 1.333.867 1.957 1.156.573.142 1.167.266 2.007.143.545-.116 1.057-.198 1.863-.573l1.72-.717c.642-.287 1.27-.574 2.438-.86.764-.1 1.529-.177 2.293-.144.481-.008 1.281.176 2.437.574.72.24 1.113.264 2.58 1.003.623.202 1.02.555 2.008.514a7.153 7.153 0 0 0 2.53-.86c.756-.554 1.648-.972 2.159-1.77.617-.576.98-1.025 1.332-1.468l1.72-2.58a9.925 9.925 0 0 0 1.467-2.344c.502-1.095.888-2.306 1.257-3.534zM35.63 22.076c.015.573.376.402.578.476.76.086 1.133-.118 1.648-.215.998-.286 1.383-.495 1.864-.717.55-.326 1.099-.562 1.648-1.075.519-.377.848-.698 1.29-1.218.587-.603.783-.887 1.22-1.506.484-.707.716-1.177 1.075-1.935.24-.608.53-1.192.645-1.863.127-.606.287-1.195.286-1.864.04-.327-.051-.522-.143-.717-.362-.213-.549-.207-.97-.177a4.444 4.444 0 0 0-1.825.392c-.771.354-1.509.73-2.08 1.219-.608.382-1.022.764-1.433 1.147-.5.456-.928.983-1.362 1.505-.494.59-.879 1.1-1.105 1.623-.304.582-.516 1.164-.758 1.746a9.387 9.387 0 0 0-.578 1.96c-.07.43-.053.729 0 1.219z" fill="#52525A"/><path d="M35.63 22.076c.015.573.376.402.578.476.76.086 1.133-.118 1.648-.215.998-.286 1.383-.495 1.864-.717.55-.326 1.099-.562 1.648-1.075.519-.377.848-.698 1.29-1.218.587-.603.783-.887 1.22-1.506.484-.707.716-1.177 1.075-1.935.24-.608.53-1.192.645-1.863.127-.606.287-1.195.286-1.864.04-.327-.051-.522-.143-.717-.362-.213-.549-.207-.97-.177a4.444 4.444 0 0 0-1.825.392c-.771.354-1.509.73-2.08 1.219-.608.382-1.022.764-1.433 1.147-.5.456-.928.983-1.362 1.505-.494.59-.879 1.1-1.105 1.623-.304.582-.516 1.164-.758 1.746a9.387 9.387 0 0 0-.578 1.96c-.07.43-.053.729 0 1.219zM55.489 48.141c.2-.776 0-1.05-.337-1.155-1.774-1.094-2.956-2.323-4.209-4.14-1.008-2.11-1.548-2.768-1.475-5.743-.068-1.434.11-2.867.717-4.3.715-1.472 1.368-2.71 2.715-3.567l1.29-1.147c.312-.235.311-.702.152-1.021-1.125-1.163-2.033-2.356-4.056-3.39-.82-.474-2.056-.841-3.685-.91-1.15 0-2.267-.034-3.677.227-1.13.184-2.31.567-3.44 1.146l-1.628.777c-1.032.252-1.97.125-2.867-.161l-3.01-1.273c-1.048-.386-2.275-.593-3.728-.573-1.434-.005-2.856.055-4.157.716-1.032.498-1.97 1.088-2.867 1.72-1.064.992-2.073 2.038-2.868 3.298-.612.79-1.046 2.067-1.526 3.255-.438 1.19-.639 2.07-.818 3.145-.314 2.08-.276 3.344-.203 4.925.155 2.707.542 3.692.827 5.304.343 1.37.815 2.479 1.29 3.584.483 1.336 1.266 2.521 2.007 3.727.653 1.253 1.673 2.629 2.724 4.014.909 1.004 1.33 1.764 3.061 3.002 1.162.725 1.333.867 1.957 1.156.573.142 1.167.266 2.007.143.545-.116 1.057-.198 1.863-.573l1.72-.717c.642-.287 1.27-.574 2.438-.86.764-.1 1.529-.177 2.293-.144.481-.008 1.281.176 2.437.574.72.24 1.113.264 2.58 1.003.623.202 1.02.555 2.008.514a7.153 7.153 0 0 0 2.53-.86c.756-.554 1.648-.972 2.159-1.77.617-.576.98-1.025 1.332-1.468l1.72-2.58a9.925 9.925 0 0 0 1.467-2.344c.502-1.095.888-2.306 1.257-3.534z" fill="#52525A"/><path d="M35.63 22.076c.015.573.376.402.578.476.76.086 1.133-.118 1.648-.215.998-.286 1.383-.495 1.864-.717.55-.326 1.099-.562 1.648-1.075.519-.377.848-.698 1.29-1.218.587-.603.783-.887 1.22-1.506.484-.707.716-1.177 1.075-1.935.24-.608.53-1.192.645-1.863.127-.606.287-1.195.286-1.864.04-.327-.051-.522-.143-.717-.362-.213-.549-.207-.97-.177a4.444 4.444 0 0 0-1.825.392c-.771.354-1.509.73-2.08 1.219-.608.382-1.022.764-1.433 1.147-.5.456-.928.983-1.362 1.505-.494.59-.879 1.1-1.105 1.623-.304.582-.516 1.164-.758 1.746a9.387 9.387 0 0 0-.578 1.96c-.07.43-.053.729 0 1.219z" fill="#52525A"/></svg>