<svg width="39" height="20" fill="none" xmlns="http://www.w3.org/2000/svg"><path d="M10.944 3.209A4.54 4.54 0 0 0 11.965 0a4.36 4.36 0 0 0-2.911 1.534A4.247 4.247 0 0 0 8.01 4.613a3.612 3.612 0 0 0 1.631-.354c.51-.243.955-.603 1.303-1.05zm.951 1.616c-1.623-.095-2.992.936-3.769.936-.777 0-1.96-.885-3.236-.861a4.744 4.744 0 0 0-2.362.709A4.8 4.8 0 0 0 .831 7.412c-1.74 3.043-.464 7.575 1.23 10.052.823 1.178 1.809 2.58 3.12 2.535 1.31-.046 1.716-.82 3.212-.82 1.496 0 1.937.82 3.236.79 1.299-.029 2.203-1.179 3.015-2.457a10.945 10.945 0 0 0 1.357-2.832 4.434 4.434 0 0 1-1.91-1.636 4.491 4.491 0 0 1-.723-2.422c.01-.764.21-1.512.58-2.178a4.546 4.546 0 0 1 1.543-1.632 4.643 4.643 0 0 0-1.568-1.418 4.597 4.597 0 0 0-2.028-.572m10.357-2.359v3.341h2.645V8.01h-2.645v7.905c0 1.18.522 1.78 1.682 1.78.318-.005.636-.028.951-.07v2.224a8.984 8.984 0 0 1-1.566.117c-2.737 0-3.792-1.073-3.792-3.763v-8.14H17.45V5.85h2.018V2.466l2.783-.003zM34.14 19.844h-2.9L26.37 5.851h2.888l3.421 11.244h.07L36.17 5.85H39l-4.86 13.993z" fill="#52525A"/></svg>