<svg width="72" height="72" fill="none" xmlns="http://www.w3.org/2000/svg"><path d="M19.29 11.16c.21-.18.42-.36.57-.48C24.54 7.65 30 6 36 6c5.64 0 10.92 1.5 15.42 4.26.33.24 1.2.81 1.68 1.38C48.75 6.84 36 17.1 36 17.1c-4.5-3.39-8.49-5.7-11.52-6.6-2.55-.63-4.29 0-5.1.6m38.64 4.53c-.15-.15-.3-.3-.42-.45-1.08-1.2-2.46-1.5-3.6-1.41-1.17.36-6.3 2.19-12.6 8.16 0 0 7.11 6.9 11.46 13.95 4.35 7.05 6.93 12.6 5.34 20.31C63 50.85 66 43.77 66 36c0-7.86-3-15-7.98-20.37zM47.19 38.88c-1.95-2.16-4.8-5.25-8.61-9.03-.81-.81-1.68-1.65-2.58-2.55 0 0-1.41 1.38-3.21 3.21-2.31 2.31-5.28 5.34-6.96 7.11-2.94 3.15-11.4 13.05-11.88 18.6 0 0-1.95-4.38 2.25-14.55 2.7-6.63 10.8-16.59 14.25-19.83 0 0-3.09-3.42-6.99-5.79l-.15-.09c-1.89-1.11-3.93-1.98-5.91-2.1-2.01.15-3.27 1.62-3.27 1.62A29.862 29.862 0 0 0 6 36a30 30 0 0 0 30 30c8.79 0 16.71-3.78 22.2-9.81 0 0-.63-3.99-4.68-9.69-.93-1.29-4.41-5.43-6.33-7.62z" fill="#52525A"/></svg>