<svg width="72" height="72" fill="none" xmlns="http://www.w3.org/2000/svg"><path d="M30.12 61.2h-8.76c-2.79 0-5.46-1.2-7.44-3.12-1.92-1.98-3.12-4.65-3.12-7.44V21.36c0-2.79 1.2-5.46 3.12-7.44 1.98-1.92 4.65-3.06 7.44-3.06h8.76V61.2zM21.36 6A15.36 15.36 0 0 0 6 21.36v29.28C6 59.13 12.87 66 21.36 66h13.59V6H21.36zm-6.03 18A5.64 5.64 0 0 0 21 29.64c3.09 0 5.61-2.52 5.61-5.64 0-3.12-2.52-5.64-5.61-5.64A5.64 5.64 0 0 0 15.33 24zm37.5 9c3.33 0 6.03 2.67 6.03 6 0 3.36-2.7 6-6.03 6s-6.09-2.64-6.09-6c0-3.33 2.76-6 6.09-6zm-2.19 33A15.36 15.36 0 0 0 66 50.64V21.36C66 12.87 59.13 6 50.64 6h-9.69v60h9.69z" fill="#52525A"/></svg>