<svg width="272" height="273" fill="none" xmlns="http://www.w3.org/2000/svg"><circle cx="136" cy="137" r="135" fill="#232326" stroke="url(#a)" stroke-width="2"/><path d="M137.677 2.01a135.002 135.002 0 0 1 123.53 185.469l-39.486-15.92a92.425 92.425 0 0 0-84.573-126.977l.529-42.572z" fill="url(#b)" stroke="url(#c)" stroke-width="2"/><path d="M10.255 186.124A134.996 134.996 0 0 1 72.741 17.739 134.999 134.999 0 0 1 135.66 2l.107 42.575a92.428 92.428 0 0 0-91.607 82.027 92.423 92.423 0 0 0 5.75 44.03l-39.656 15.492z" fill="url(#d)" stroke="url(#e)" stroke-width="2"/><defs><linearGradient id="a" x1="300.889" y1="-30.878" x2="113.154" y2="312.846" gradientUnits="userSpaceOnUse"><stop stop-color="#fff"/><stop offset=".586" stop-opacity="0"/></linearGradient><linearGradient id="b" x1="115.576" y1="-14.439" x2="33.878" y2="159.417" gradientUnits="userSpaceOnUse"><stop stop-color="#FF7070"/><stop offset="1" stop-color="#1E1E20" stop-opacity="0"/></linearGradient><linearGradient id="c" x1="252.308" y1="-101.846" x2="113.154" y2="312.846" gradientUnits="userSpaceOnUse"><stop stop-color="#fff"/><stop offset=".586" stop-opacity="0"/></linearGradient><linearGradient id="d" x1="115.576" y1="-14.439" x2="33.878" y2="159.417" gradientUnits="userSpaceOnUse"><stop stop-color="#41FFB4"/><stop offset="1" stop-color="#1E1E20" stop-opacity="0"/></linearGradient><linearGradient id="e" x1="252.308" y1="-101.846" x2="113.154" y2="312.846" gradientUnits="userSpaceOnUse"><stop stop-color="#fff"/><stop offset=".586" stop-opacity="0"/></linearGradient></defs></svg>