<svg width="272" height="273" viewBox="0 0 272 273" fill="none" xmlns="http://www.w3.org/2000/svg">
<circle cx="136" cy="137" r="135" fill="#232326" stroke="url(#paint0_linear_7_7498)" stroke-width="2"/>
<path d="M137.677 2.01042C159.627 2.28316 181.178 7.90401 200.465 18.3859C219.751 28.8678 236.191 43.8945 248.359 62.164C260.527 80.4335 268.057 101.395 270.296 123.231C272.535 145.067 269.415 167.12 261.207 187.479L221.721 171.559C227.34 157.621 229.476 142.523 227.943 127.573C226.411 112.623 221.255 98.2727 212.925 85.7648C204.594 73.257 193.339 62.9692 180.135 55.7929C166.93 48.6167 152.176 44.7685 137.148 44.5817L137.677 2.01042Z" fill="url(#paint1_linear_7_7498)" stroke="url(#paint2_linear_7_7498)" stroke-width="2"/>
<path d="M10.2551 186.124C2.27114 165.688 -0.611365 143.613 1.85711 121.812C4.32558 100.01 12.0706 79.1388 24.4218 61.0046C36.7729 42.8704 53.3578 28.0199 72.7407 17.7387C92.1236 7.4575 113.72 2.05552 135.661 2.00043L135.768 44.5749C120.747 44.6126 105.961 48.311 92.6906 55.3498C79.4205 62.3887 68.0659 72.5558 59.6099 84.9711C51.1539 97.3864 45.8514 111.676 44.1614 126.602C42.4714 141.528 44.4449 156.641 49.9109 170.632L10.2551 186.124Z" fill="url(#paint3_linear_7_7498)" stroke="url(#paint4_linear_7_7498)" stroke-width="2"/>
<defs>
<linearGradient id="paint0_linear_7_7498" x1="300.889" y1="-30.8782" x2="113.154" y2="312.846" gradientUnits="userSpaceOnUse">
<stop stop-color="white"/>
<stop offset="0.585939" stop-opacity="0"/>
</linearGradient>
<linearGradient id="paint1_linear_7_7498" x1="115.576" y1="-14.4391" x2="33.8782" y2="159.417" gradientUnits="userSpaceOnUse">
<stop stop-color="#FF7070"/>
<stop offset="1" stop-color="#1E1E20" stop-opacity="0"/>
</linearGradient>
<linearGradient id="paint2_linear_7_7498" x1="252.308" y1="-101.846" x2="113.154" y2="312.846" gradientUnits="userSpaceOnUse">
<stop stop-color="white"/>
<stop offset="0.585939" stop-opacity="0"/>
</linearGradient>
<linearGradient id="paint3_linear_7_7498" x1="115.576" y1="-14.4391" x2="33.8782" y2="159.417" gradientUnits="userSpaceOnUse">
<stop stop-color="#41FFB4"/>
<stop offset="1" stop-color="#1E1E20" stop-opacity="0"/>
</linearGradient>
<linearGradient id="paint4_linear_7_7498" x1="252.308" y1="-101.846" x2="113.154" y2="312.846" gradientUnits="userSpaceOnUse">
<stop stop-color="white"/>
<stop offset="0.585939" stop-opacity="0"/>
</linearGradient>
</defs>
</svg>
