<svg width="23" height="12" viewBox="0 0 23 12" fill="none" xmlns="http://www.w3.org/2000/svg">
<path d="M2.33164 0.961975C2.30887 0.961975 2.30887 0.975938 2.29748 0.989504C1.30863 2.66602 0.728982 3.77918 0.115096 5.15337L0.0469502 5.30449L0.0354834 5.35955C-0.0212775 5.49709 -0.00997449 5.64811 0.0696382 5.77179C0.433301 6.45884 2.46793 7.26967 7.00307 7.26967C10.3902 7.26967 13.9933 6.61005 13.9933 5.37341C13.9933 4.20519 10.4471 3.50448 7.00307 3.50448C5.85499 3.50448 4.72977 3.68313 4.41148 3.75185C4.71838 3.17462 6.01414 1.07189 6.01414 1.05833C6.03682 1.0309 6.03683 1.0309 6.03683 1.01713V0.989702C6.01414 0.975938 6.00275 0.962173 5.98006 0.962173L2.33164 0.961975ZM3.65008 5.37331C3.65008 5.12594 4.93453 4.76865 7.00315 4.76865C9.07177 4.76865 10.3449 5.12594 10.3449 5.37331C10.3449 5.64801 9.07185 5.99163 7.00315 5.99163C4.93445 5.99173 3.65008 5.64821 3.65008 5.37331Z" fill="white"/>
<path d="M4.90028 11.5439C5.47993 11.5576 21.7907 12.2446 22.1545 5.24985C22.4499 -0.535772 10.447 0.0140225 10.447 0.0140225C10.4244 0.0140225 10.3448 0.0140226 10.3448 0.082648C10.3448 0.165137 10.3789 0.179001 10.4244 0.179001C13.7547 0.179001 19.1652 1.7867 18.9947 5.24985C18.8582 8.0533 14.63 11.3513 4.90036 11.3513C4.85491 11.3513 4.80945 11.4063 4.80945 11.4475C4.80937 11.4889 4.84344 11.5301 4.90028 11.5439Z" fill="white"/>
</svg>
