<svg width="24" height="24" fill="none" xmlns="http://www.w3.org/2000/svg"><path d="M16.562 3H7.434C4.989 3 3 5.031 3 7.524v8.952C3 18.97 4.99 21 7.434 21h9.128C19.011 21 21 18.969 21 16.476V7.524C21 5.03 19.01 3 16.562 3zm-7.817 8.798v.027c0 .438-.365.82-.799.82h-.935c-.433 0-.797-.382-.797-.82V7.668c.04-.433.37-.81.797-.81h.935c.437 0 .8.395.8.838v4.103zm4.903 5.817v.108c0 .46-.357.707-.809.707H11.16c-.451 0-.808-.326-.808-.786V16.463c0-.937.728-1.699 1.648-1.699.92 0 1.648.763 1.648 1.7v1.15zm4.138-5.817v.027c0 .438-.364.82-.797.82h-.976c-.433 0-.799-.382-.799-.82V7.668c.04-.433.371-.81.8-.81h.975c.433 0 .797.395.797.838v4.103z" fill="#FFADAD"/></svg>